<svg xmlns="http://www.w3.org/2000/svg" xml:space="preserve" id="레이어_1" x="0" y="0" style="enable-background:new 0 0 219 219" version="1.1" viewBox="0 0 219 219"><style>.st2{opacity:.85;fill:#d62828}</style><path d="m64.57 145.33-40.68 32.44C43.95 202.9 74.84 219 109.5 219v-52c-18.17 0-34.38-8.48-44.93-21.67z" style="opacity:.85;fill:#006494"/><path d="M52 109.5c0-4.64.57-9.14 1.61-13.46L3.03 83.85A109.55 109.55 0 0 0 0 109.5c0 25.82 8.94 49.55 23.89 68.27l40.68-32.44C56.71 135.49 52 123.04 52 109.5z" style="opacity:.85;fill:#0582ca"/><path d="M109.5 167v52c35.12 0 66.37-16.53 86.41-42.24l-41.07-31.97C144.31 158.29 127.91 167 109.5 167z" class="st2"/><path d="M84.77 57.6 62.38 10.63C32.96 24.68 10.8 51.46 3.03 83.85l50.58 12.18C57.7 79.06 69.33 64.98 84.77 57.6z" style="opacity:.85;fill:#00a6fb"/><path d="m216.06 84.2-50.62 12.02c1.01 4.27 1.57 8.71 1.57 13.28 0 13.3-4.55 25.54-12.16 35.3l41.07 31.97C210.38 158.2 219 134.86 219 109.5c0-8.71-1.02-17.18-2.94-25.3z" style="opacity:.85;fill:#f77f00"/><path d="M109.5 52c8.9 0 17.34 2.04 24.87 5.66l22.51-46.91C142.54 3.86 126.47 0 109.5 0 92.63 0 76.65 3.82 62.38 10.63L84.77 57.6c7.49-3.59 15.88-5.6 24.73-5.6z" style="opacity:.85;fill:#70e000"/><path d="m165.43 96.22 50.62-12.02c-7.68-32.45-29.78-59.31-59.17-73.44l-22.51 46.91c15.42 7.42 27.02 21.54 31.06 38.55z" style="opacity:.85;fill:#fcbf49"/><circle cx="109.5" cy="109.5" r="49.5" class="st2"/></svg>